<mxfile host="app.diagrams.net" agent="Mozilla/5.0 (Windows NT 10.0; Win64; x64) AppleWebKit/537.36 (KHTML, like Gecko) Chrome/135.0.0.0 Safari/537.36" version="26.2.14">
  <diagram name="第 1 页" id="FtfWrg-H77xWDs6eAyMn">
    <mxGraphModel dx="449" dy="289" grid="1" gridSize="10" guides="1" tooltips="1" connect="1" arrows="1" fold="1" page="1" pageScale="1" pageWidth="827" pageHeight="1169" math="0" shadow="0">
      <root>
        <mxCell id="0" />
        <mxCell id="1" parent="0" />
        <mxCell id="kvL6s20GYuhgq7vEBr1f-18" value="" style="rounded=1;whiteSpace=wrap;html=1;" vertex="1" parent="1">
          <mxGeometry x="100" y="150" width="270" height="100" as="geometry" />
        </mxCell>
        <mxCell id="kvL6s20GYuhgq7vEBr1f-19" style="edgeStyle=orthogonalEdgeStyle;rounded=0;orthogonalLoop=1;jettySize=auto;html=1;exitX=0.5;exitY=1;exitDx=0;exitDy=0;entryX=0.5;entryY=0;entryDx=0;entryDy=0;" edge="1" parent="1" source="kvL6s20GYuhgq7vEBr1f-1" target="kvL6s20GYuhgq7vEBr1f-2">
          <mxGeometry relative="1" as="geometry" />
        </mxCell>
        <mxCell id="kvL6s20GYuhgq7vEBr1f-1" value="User Space APP" style="rounded=1;whiteSpace=wrap;html=1;fillColor=#dae8fc;strokeColor=#6c8ebf;" vertex="1" parent="1">
          <mxGeometry x="160" y="160" width="120" height="29" as="geometry" />
        </mxCell>
        <mxCell id="kvL6s20GYuhgq7vEBr1f-2" value="Char Device Driver" style="rounded=1;whiteSpace=wrap;html=1;fillColor=#d5e8d4;strokeColor=#82b366;" vertex="1" parent="1">
          <mxGeometry x="160" y="210" width="120" height="30" as="geometry" />
        </mxCell>
        <mxCell id="kvL6s20GYuhgq7vEBr1f-9" value="" style="endArrow=none;html=1;rounded=0;" edge="1" parent="1">
          <mxGeometry width="50" height="50" relative="1" as="geometry">
            <mxPoint x="100" y="200" as="sourcePoint" />
            <mxPoint x="360" y="200" as="targetPoint" />
          </mxGeometry>
        </mxCell>
        <mxCell id="kvL6s20GYuhgq7vEBr1f-10" value="User Space" style="text;html=1;align=center;verticalAlign=middle;whiteSpace=wrap;rounded=0;" vertex="1" parent="1">
          <mxGeometry x="100" y="159" width="60" height="30" as="geometry" />
        </mxCell>
        <mxCell id="kvL6s20GYuhgq7vEBr1f-11" value="Kernel Space" style="text;html=1;align=center;verticalAlign=middle;whiteSpace=wrap;rounded=0;" vertex="1" parent="1">
          <mxGeometry x="100" y="208" width="60" height="30" as="geometry" />
        </mxCell>
        <mxCell id="kvL6s20GYuhgq7vEBr1f-15" style="edgeStyle=orthogonalEdgeStyle;rounded=0;orthogonalLoop=1;jettySize=auto;html=1;exitX=0;exitY=0.5;exitDx=0;exitDy=0;entryX=1;entryY=0.5;entryDx=0;entryDy=0;" edge="1" parent="1" source="kvL6s20GYuhgq7vEBr1f-12" target="kvL6s20GYuhgq7vEBr1f-2">
          <mxGeometry relative="1" as="geometry" />
        </mxCell>
        <mxCell id="kvL6s20GYuhgq7vEBr1f-12" value="&lt;font style=&quot;font-size: 11px;&quot;&gt;might_sleep&lt;/font&gt;" style="rounded=1;whiteSpace=wrap;html=1;fillColor=#fff2cc;strokeColor=#d6b656;" vertex="1" parent="1">
          <mxGeometry x="300" y="210" width="60" height="30" as="geometry" />
        </mxCell>
        <mxCell id="kvL6s20GYuhgq7vEBr1f-20" value="Ubuntu" style="text;html=1;align=center;verticalAlign=middle;whiteSpace=wrap;rounded=0;" vertex="1" parent="1">
          <mxGeometry x="100" y="122" width="60" height="30" as="geometry" />
        </mxCell>
        <mxCell id="kvL6s20GYuhgq7vEBr1f-21" value="" style="endArrow=classic;html=1;rounded=0;" edge="1" parent="1">
          <mxGeometry width="50" height="50" relative="1" as="geometry">
            <mxPoint x="130" y="270" as="sourcePoint" />
            <mxPoint x="130" y="240" as="targetPoint" />
          </mxGeometry>
        </mxCell>
        <mxCell id="kvL6s20GYuhgq7vEBr1f-22" value="Preemption mode" style="rounded=1;whiteSpace=wrap;html=1;fillColor=#dae8fc;strokeColor=#6c8ebf;" vertex="1" parent="1">
          <mxGeometry x="100" y="260" width="120" height="29" as="geometry" />
        </mxCell>
      </root>
    </mxGraphModel>
  </diagram>
</mxfile>
